<mxfile host="app.diagrams.net" modified="2024-04-10T12:10:42.065Z" agent="Mozilla/5.0 (Windows NT 10.0; Win64; x64) AppleWebKit/537.36 (KHTML, like Gecko) Chrome/123.0.0.0 Safari/537.36 Edg/123.0.0.0" etag="C6sD_X-5BklRkwx-r4lO" version="24.2.3" type="github">
  <diagram name="第 1 页" id="3flDMspyzysU2a9ugg71">
    <mxGraphModel dx="1426" dy="751" grid="1" gridSize="1" guides="1" tooltips="1" connect="1" arrows="1" fold="1" page="1" pageScale="1" pageWidth="827" pageHeight="1169" math="0" shadow="0">
      <root>
        <mxCell id="0" />
        <mxCell id="1" parent="0" />
        <mxCell id="buOV21PmRh0r0QjAweMu-1" value="&lt;div&gt;&lt;br&gt;&lt;/div&gt;&lt;div&gt;&lt;br&gt;&lt;/div&gt;" style="rounded=0;whiteSpace=wrap;html=1;" parent="1" vertex="1">
          <mxGeometry x="150" y="431" width="330" height="149" as="geometry" />
        </mxCell>
        <mxCell id="buOV21PmRh0r0QjAweMu-4" value="AFE:BQ79616" style="rounded=0;whiteSpace=wrap;html=1;" parent="1" vertex="1">
          <mxGeometry x="150" y="518" width="120" height="53" as="geometry" />
        </mxCell>
        <mxCell id="buOV21PmRh0r0QjAweMu-5" value="电流传感器:INA229" style="rounded=0;whiteSpace=wrap;html=1;" parent="1" vertex="1">
          <mxGeometry x="150" y="461" width="120" height="40" as="geometry" />
        </mxCell>
        <mxCell id="buOV21PmRh0r0QjAweMu-19" style="edgeStyle=orthogonalEdgeStyle;rounded=0;orthogonalLoop=1;jettySize=auto;html=1;entryX=0.5;entryY=0;entryDx=0;entryDy=0;" parent="1" edge="1">
          <mxGeometry relative="1" as="geometry">
            <mxPoint x="390.005617977528" y="500" as="sourcePoint" />
            <mxPoint x="390" y="530" as="targetPoint" />
          </mxGeometry>
        </mxCell>
        <mxCell id="buOV21PmRh0r0QjAweMu-7" value="MCU:STM32F407VET6" style="rounded=0;whiteSpace=wrap;html=1;" parent="1" vertex="1">
          <mxGeometry x="318.5" y="460" width="137" height="40" as="geometry" />
        </mxCell>
        <mxCell id="buOV21PmRh0r0QjAweMu-18" style="edgeStyle=orthogonalEdgeStyle;rounded=0;orthogonalLoop=1;jettySize=auto;html=1;entryX=0.5;entryY=1;entryDx=0;entryDy=0;" parent="1" edge="1">
          <mxGeometry relative="1" as="geometry">
            <mxPoint x="390.005617977528" y="530" as="sourcePoint" />
            <mxPoint x="389.9999999999999" y="500" as="targetPoint" />
          </mxGeometry>
        </mxCell>
        <mxCell id="buOV21PmRh0r0QjAweMu-12" value="CAN" style="rounded=0;whiteSpace=wrap;html=1;" parent="1" vertex="1">
          <mxGeometry x="335.5" y="530" width="120" height="40" as="geometry" />
        </mxCell>
        <mxCell id="buOV21PmRh0r0QjAweMu-26" value="" style="endArrow=classic;startArrow=classic;html=1;rounded=0;exitX=1;exitY=0.5;exitDx=0;exitDy=0;" parent="1" source="buOV21PmRh0r0QjAweMu-4" edge="1">
          <mxGeometry width="50" height="50" relative="1" as="geometry">
            <mxPoint x="280" y="550" as="sourcePoint" />
            <mxPoint x="330" y="500" as="targetPoint" />
            <Array as="points">
              <mxPoint x="300" y="545" />
              <mxPoint x="300" y="520" />
              <mxPoint x="330" y="520" />
            </Array>
          </mxGeometry>
        </mxCell>
        <mxCell id="buOV21PmRh0r0QjAweMu-28" value="" style="endArrow=classic;startArrow=classic;html=1;rounded=0;entryX=0;entryY=0.5;entryDx=0;entryDy=0;exitX=1;exitY=0.5;exitDx=0;exitDy=0;" parent="1" source="buOV21PmRh0r0QjAweMu-5" target="buOV21PmRh0r0QjAweMu-7" edge="1">
          <mxGeometry width="50" height="50" relative="1" as="geometry">
            <mxPoint x="300" y="560" as="sourcePoint" />
            <mxPoint x="350" y="510" as="targetPoint" />
          </mxGeometry>
        </mxCell>
        <mxCell id="buOV21PmRh0r0QjAweMu-29" value="" style="endArrow=none;html=1;rounded=0;" parent="1" edge="1">
          <mxGeometry width="50" height="50" relative="1" as="geometry">
            <mxPoint x="107" y="533" as="sourcePoint" />
            <mxPoint x="121" y="533" as="targetPoint" />
          </mxGeometry>
        </mxCell>
        <mxCell id="buOV21PmRh0r0QjAweMu-30" value="" style="endArrow=none;html=1;rounded=0;" parent="1" edge="1">
          <mxGeometry width="50" height="50" relative="1" as="geometry">
            <mxPoint x="110" y="536" as="sourcePoint" />
            <mxPoint x="118" y="536" as="targetPoint" />
          </mxGeometry>
        </mxCell>
        <mxCell id="buOV21PmRh0r0QjAweMu-31" value="" style="endArrow=none;html=1;rounded=0;" parent="1" edge="1">
          <mxGeometry width="50" height="50" relative="1" as="geometry">
            <mxPoint x="107" y="541" as="sourcePoint" />
            <mxPoint x="121" y="541" as="targetPoint" />
          </mxGeometry>
        </mxCell>
        <mxCell id="buOV21PmRh0r0QjAweMu-32" value="" style="endArrow=none;html=1;rounded=0;" parent="1" edge="1">
          <mxGeometry width="50" height="50" relative="1" as="geometry">
            <mxPoint x="110" y="544" as="sourcePoint" />
            <mxPoint x="118" y="544" as="targetPoint" />
          </mxGeometry>
        </mxCell>
        <mxCell id="buOV21PmRh0r0QjAweMu-33" value="" style="endArrow=none;html=1;rounded=0;strokeWidth=0.5;" parent="1" edge="1">
          <mxGeometry width="50" height="50" relative="1" as="geometry">
            <mxPoint x="114" y="541" as="sourcePoint" />
            <mxPoint x="114" y="536" as="targetPoint" />
          </mxGeometry>
        </mxCell>
        <mxCell id="buOV21PmRh0r0QjAweMu-35" value="" style="endArrow=none;html=1;rounded=0;" parent="1" edge="1">
          <mxGeometry width="50" height="50" relative="1" as="geometry">
            <mxPoint x="107" y="549" as="sourcePoint" />
            <mxPoint x="121" y="549" as="targetPoint" />
          </mxGeometry>
        </mxCell>
        <mxCell id="buOV21PmRh0r0QjAweMu-36" value="" style="endArrow=none;html=1;rounded=0;" parent="1" edge="1">
          <mxGeometry width="50" height="50" relative="1" as="geometry">
            <mxPoint x="110" y="552" as="sourcePoint" />
            <mxPoint x="118" y="552" as="targetPoint" />
          </mxGeometry>
        </mxCell>
        <mxCell id="buOV21PmRh0r0QjAweMu-37" value="" style="endArrow=none;html=1;rounded=0;strokeWidth=0.5;" parent="1" edge="1">
          <mxGeometry width="50" height="50" relative="1" as="geometry">
            <mxPoint x="114" y="549" as="sourcePoint" />
            <mxPoint x="114" y="544" as="targetPoint" />
          </mxGeometry>
        </mxCell>
        <mxCell id="buOV21PmRh0r0QjAweMu-38" value="" style="endArrow=none;html=1;rounded=0;" parent="1" edge="1">
          <mxGeometry width="50" height="50" relative="1" as="geometry">
            <mxPoint x="107" y="557" as="sourcePoint" />
            <mxPoint x="121" y="557" as="targetPoint" />
          </mxGeometry>
        </mxCell>
        <mxCell id="buOV21PmRh0r0QjAweMu-39" value="" style="endArrow=none;html=1;rounded=0;" parent="1" edge="1">
          <mxGeometry width="50" height="50" relative="1" as="geometry">
            <mxPoint x="110" y="560" as="sourcePoint" />
            <mxPoint x="118" y="560" as="targetPoint" />
          </mxGeometry>
        </mxCell>
        <mxCell id="buOV21PmRh0r0QjAweMu-40" value="" style="endArrow=none;html=1;rounded=0;strokeWidth=0.5;" parent="1" edge="1">
          <mxGeometry width="50" height="50" relative="1" as="geometry">
            <mxPoint x="114" y="557" as="sourcePoint" />
            <mxPoint x="114" y="552" as="targetPoint" />
          </mxGeometry>
        </mxCell>
        <mxCell id="buOV21PmRh0r0QjAweMu-48" value="" style="endArrow=none;html=1;rounded=0;" parent="1" edge="1">
          <mxGeometry width="50" height="50" relative="1" as="geometry">
            <mxPoint x="107" y="510" as="sourcePoint" />
            <mxPoint x="121" y="510" as="targetPoint" />
          </mxGeometry>
        </mxCell>
        <mxCell id="buOV21PmRh0r0QjAweMu-49" value="" style="endArrow=none;html=1;rounded=0;" parent="1" edge="1">
          <mxGeometry width="50" height="50" relative="1" as="geometry">
            <mxPoint x="110" y="513" as="sourcePoint" />
            <mxPoint x="118" y="513" as="targetPoint" />
          </mxGeometry>
        </mxCell>
        <mxCell id="buOV21PmRh0r0QjAweMu-50" value="" style="endArrow=none;html=1;rounded=0;" parent="1" edge="1">
          <mxGeometry width="50" height="50" relative="1" as="geometry">
            <mxPoint x="107" y="518" as="sourcePoint" />
            <mxPoint x="121" y="518" as="targetPoint" />
          </mxGeometry>
        </mxCell>
        <mxCell id="buOV21PmRh0r0QjAweMu-51" value="" style="endArrow=none;html=1;rounded=0;" parent="1" edge="1">
          <mxGeometry width="50" height="50" relative="1" as="geometry">
            <mxPoint x="110" y="521" as="sourcePoint" />
            <mxPoint x="118" y="521" as="targetPoint" />
          </mxGeometry>
        </mxCell>
        <mxCell id="buOV21PmRh0r0QjAweMu-52" value="" style="endArrow=none;html=1;rounded=0;strokeWidth=0.5;" parent="1" edge="1">
          <mxGeometry width="50" height="50" relative="1" as="geometry">
            <mxPoint x="114" y="518" as="sourcePoint" />
            <mxPoint x="114" y="513" as="targetPoint" />
          </mxGeometry>
        </mxCell>
        <mxCell id="buOV21PmRh0r0QjAweMu-53" value="" style="endArrow=none;dashed=1;html=1;strokeWidth=0.5;rounded=0;" parent="1" edge="1">
          <mxGeometry width="50" height="50" relative="1" as="geometry">
            <mxPoint x="114" y="521" as="sourcePoint" />
            <mxPoint x="114" y="533" as="targetPoint" />
          </mxGeometry>
        </mxCell>
        <mxCell id="buOV21PmRh0r0QjAweMu-59" value="&lt;font style=&quot;font-size: 5px;&quot;&gt;&lt;b&gt;R&lt;/b&gt;&lt;/font&gt;" style="rounded=0;whiteSpace=wrap;html=1;" parent="1" vertex="1">
          <mxGeometry x="109" y="472" width="10" height="22" as="geometry" />
        </mxCell>
        <mxCell id="buOV21PmRh0r0QjAweMu-60" value="" style="endArrow=none;html=1;rounded=0;strokeWidth=0.5;entryX=-0.002;entryY=0.928;entryDx=0;entryDy=0;entryPerimeter=0;" parent="1" edge="1">
          <mxGeometry width="50" height="50" relative="1" as="geometry">
            <mxPoint x="114.2" y="560" as="sourcePoint" />
            <mxPoint x="149.99999999999997" y="562.12" as="targetPoint" />
            <Array as="points">
              <mxPoint x="114.24000000000001" y="562" />
            </Array>
          </mxGeometry>
        </mxCell>
        <mxCell id="buOV21PmRh0r0QjAweMu-64" value="" style="endArrow=none;html=1;rounded=0;strokeWidth=0.5;entryX=-0.004;entryY=0.574;entryDx=0;entryDy=0;entryPerimeter=0;" parent="1" edge="1">
          <mxGeometry width="50" height="50" relative="1" as="geometry">
            <mxPoint x="114" y="554.04" as="sourcePoint" />
            <mxPoint x="149.51999999999998" y="554" as="targetPoint" />
          </mxGeometry>
        </mxCell>
        <mxCell id="buOV21PmRh0r0QjAweMu-65" value="" style="endArrow=none;html=1;rounded=0;strokeWidth=0.5;entryX=-0.004;entryY=0.574;entryDx=0;entryDy=0;entryPerimeter=0;" parent="1" edge="1">
          <mxGeometry width="50" height="50" relative="1" as="geometry">
            <mxPoint x="114" y="546.04" as="sourcePoint" />
            <mxPoint x="149.51999999999998" y="546" as="targetPoint" />
          </mxGeometry>
        </mxCell>
        <mxCell id="buOV21PmRh0r0QjAweMu-66" value="" style="endArrow=none;html=1;rounded=0;strokeWidth=0.5;entryX=-0.004;entryY=0.574;entryDx=0;entryDy=0;entryPerimeter=0;" parent="1" edge="1">
          <mxGeometry width="50" height="50" relative="1" as="geometry">
            <mxPoint x="114" y="538.04" as="sourcePoint" />
            <mxPoint x="149.51999999999998" y="538" as="targetPoint" />
          </mxGeometry>
        </mxCell>
        <mxCell id="buOV21PmRh0r0QjAweMu-67" value="" style="endArrow=none;html=1;rounded=0;strokeWidth=0.5;entryX=-0.004;entryY=0.574;entryDx=0;entryDy=0;entryPerimeter=0;" parent="1" edge="1">
          <mxGeometry width="50" height="50" relative="1" as="geometry">
            <mxPoint x="114" y="528.04" as="sourcePoint" />
            <mxPoint x="149.51999999999998" y="528" as="targetPoint" />
          </mxGeometry>
        </mxCell>
        <mxCell id="buOV21PmRh0r0QjAweMu-69" value="" style="endArrow=none;html=1;rounded=0;entryX=0.5;entryY=1;entryDx=0;entryDy=0;strokeWidth=2;" parent="1" target="buOV21PmRh0r0QjAweMu-59" edge="1">
          <mxGeometry width="50" height="50" relative="1" as="geometry">
            <mxPoint x="114" y="510" as="sourcePoint" />
            <mxPoint x="186" y="477" as="targetPoint" />
          </mxGeometry>
        </mxCell>
        <mxCell id="buOV21PmRh0r0QjAweMu-70" value="" style="endArrow=none;html=1;rounded=0;entryX=0.5;entryY=1;entryDx=0;entryDy=0;strokeWidth=2;" parent="1" edge="1">
          <mxGeometry width="50" height="50" relative="1" as="geometry">
            <mxPoint x="88" y="600" as="sourcePoint" />
            <mxPoint x="113.98" y="560" as="targetPoint" />
            <Array as="points">
              <mxPoint x="114" y="600" />
            </Array>
          </mxGeometry>
        </mxCell>
        <mxCell id="buOV21PmRh0r0QjAweMu-78" value="PACK-" style="edgeLabel;html=1;align=center;verticalAlign=middle;resizable=0;points=[];" parent="buOV21PmRh0r0QjAweMu-70" vertex="1" connectable="0">
          <mxGeometry x="-0.7273" relative="1" as="geometry">
            <mxPoint x="2" y="10" as="offset" />
          </mxGeometry>
        </mxCell>
        <mxCell id="buOV21PmRh0r0QjAweMu-72" value="" style="endArrow=none;html=1;rounded=0;strokeWidth=2;exitX=0.5;exitY=0;exitDx=0;exitDy=0;" parent="1" source="buOV21PmRh0r0QjAweMu-59" edge="1">
          <mxGeometry width="50" height="50" relative="1" as="geometry">
            <mxPoint x="114" y="449" as="sourcePoint" />
            <mxPoint x="88" y="424" as="targetPoint" />
            <Array as="points">
              <mxPoint x="114" y="424" />
            </Array>
          </mxGeometry>
        </mxCell>
        <mxCell id="buOV21PmRh0r0QjAweMu-77" value="PACK+" style="edgeLabel;html=1;align=center;verticalAlign=middle;resizable=0;points=[];" parent="buOV21PmRh0r0QjAweMu-72" vertex="1" connectable="0">
          <mxGeometry x="0.7387" relative="1" as="geometry">
            <mxPoint x="3" y="-9" as="offset" />
          </mxGeometry>
        </mxCell>
        <mxCell id="buOV21PmRh0r0QjAweMu-74" value="" style="endArrow=none;html=1;rounded=0;strokeWidth=0.5;entryX=-0.004;entryY=0.574;entryDx=0;entryDy=0;entryPerimeter=0;" parent="1" edge="1">
          <mxGeometry width="50" height="50" relative="1" as="geometry">
            <mxPoint x="115" y="468.03999999999996" as="sourcePoint" />
            <mxPoint x="150.51999999999998" y="468" as="targetPoint" />
          </mxGeometry>
        </mxCell>
        <mxCell id="buOV21PmRh0r0QjAweMu-75" value="" style="endArrow=none;html=1;rounded=0;strokeWidth=0.5;entryX=-0.004;entryY=0.574;entryDx=0;entryDy=0;entryPerimeter=0;" parent="1" edge="1">
          <mxGeometry width="50" height="50" relative="1" as="geometry">
            <mxPoint x="115" y="499.03999999999996" as="sourcePoint" />
            <mxPoint x="150.51999999999998" y="499" as="targetPoint" />
          </mxGeometry>
        </mxCell>
        <mxCell id="buOV21PmRh0r0QjAweMu-76" value="&lt;b&gt;BMU&lt;/b&gt;" style="text;html=1;align=center;verticalAlign=middle;resizable=0;points=[];autosize=1;strokeColor=none;fillColor=none;" parent="1" vertex="1">
          <mxGeometry x="281" y="431" width="46" height="27" as="geometry" />
        </mxCell>
      </root>
    </mxGraphModel>
  </diagram>
</mxfile>
